<svg xmlns="http://www.w3.org/2000/svg" viewBox="0 0 240 160">
  <g fill="none" stroke="#36554c" stroke-width="3" stroke-linecap="round" stroke-linejoin="round">
    <path d="M40 140q-16-52 30-72 8-44 54-42 40 2 42 40 34 22 20 74z" fill="#edbb59"/>
    <path d="M124 26q34 0 36 34-18 16-40 12-22-6-20-26 4-20 24-20z" fill="#f6d979"/>
    <path d="M160 48h34l-14 12 14 12h-34z" fill="#e58c4e"/>
    <circle cx="136" cy="44" r="6" fill="#36554c" stroke="none"/>
    <circle cx="134" cy="42" r="2" fill="#fff5df" stroke="none"/>
    <path d="M62 92q42-14 76 14-26 34-62 20z" fill="#f2c95c"/>
    <path d="M44 138q54 14 116 0" stroke="#d3a63f" stroke-width="3"/>
  </g>
</svg>
